ffmpeg started on 2016-12-01 at 12:02:59
Report written to "Output/x264/results/ffmpeg/old_town_cross_2160p50slow1000k.log"
Command line:
Tools/ffmpeg/ffmpeg -benchmark -y -i Input/y4m/old_town_cross_2160p50.y4m -c:v libx264 -preset slow -b:v 1000k -an Output/x264/encoded/old_town_cross_2160p50slow1000k.mkv
ffmpeg version N-82227-gdb23fde Copyright (c) 2000-2016 the FFmpeg developers
  built with gcc 5.4.0 (Ubuntu 5.4.0-6ubuntu1~16.04.2) 20160609
  configuration: --prefix=/home/jaroslav/ffmpeg_build --pkg-config-flags=--static --extra-cflags=-I/home/jaroslav/ffmpeg_build/include --extra-ldflags=-L/home/jaroslav/ffmpeg_build/lib --bindir=/home/jaroslav/bin --enable-gpl --enable-libass --enable-libfdk-aac --enable-libfreetype --enable-libmp3lame --enable-libopus --enable-libtheora --enable-libvorbis --enable-libvpx --enable-libx264 --enable-libx265 --enable-nvenc --enable-libmfx --enable-libxvid --enable-libgsm --enable-libopencore-amrnb --enable-version3 --enable-nonfree
  libavutil      55. 35.100 / 55. 35.100
  libavcodec     57. 66.101 / 57. 66.101
  libavformat    57. 57.100 / 57. 57.100
  libavdevice    57.  2.100 / 57.  2.100
  libavfilter     6. 66.100 /  6. 66.100
  libswscale      4.  3.100 /  4.  3.100
  libswresample   2.  4.100 /  2.  4.100
  libpostproc    54.  2.100 / 54.  2.100
Input #0, yuv4mpegpipe, from 'Input/y4m/old_town_cross_2160p50.y4m':
  Duration: 00:00:10.00, start: 0.000000, bitrate: 4976642 kb/s
    Stream #0:0: Video: rawvideo (I420 / 0x30323449), yuv420p(progressive), 3840x2160, SAR 1:1 DAR 16:9, 50 fps, 50 tbr, 50 tbn, 50 tbc
[libx264 @ 0x397f120] using SAR=1/1
[libx264 @ 0x397f120] using cpu capabilities: MMX2 SSE2Fast SSSE3 SSE4.2 AVX FMA3 AVX2 LZCNT BMI2
[libx264 @ 0x397f120] profile High, level 5.2
[libx264 @ 0x397f120] 264 - core 148 - H.264/MPEG-4 AVC codec - Copyleft 2003-2016 - http://www.videolan.org/x264.html - options: cabac=1 ref=5 deblock=1:0:0 analyse=0x3:0x113 me=hex subme=8 psy=1 psy_rd=1.00:0.00 mixed_ref=1 me_range=16 chroma_me=1 trellis=2 8x8dct=1 cqm=0 deadzone=21,11 fast_pskip=1 chroma_qp_offset=-2 threads=6 lookahead_threads=1 sliced_threads=0 nr=0 decimate=1 interlaced=0 bluray_compat=0 constrained_intra=0 bframes=3 b_pyramid=2 b_adapt=1 b_bias=0 direct=3 weightb=1 open_gop=0 weightp=2 keyint=250 keyint_min=25 scenecut=40 intra_refresh=0 rc_lookahead=50 rc=abr mbtree=1 bitrate=1000 ratetol=1.0 qcomp=0.60 qpmin=0 qpmax=69 qpstep=4 ip_ratio=1.40 aq=1:1.00
Output #0, matroska, to 'Output/x264/encoded/old_town_cross_2160p50slow1000k.mkv':
  Metadata:
    encoder         : Lavf57.57.100
    Stream #0:0: Video: h264 (libx264) (H264 / 0x34363248), yuv420p, 3840x2160 [SAR 1:1 DAR 16:9], q=-1--1, 1000 kb/s, 50 fps, 1k tbn, 50 tbc
    Metadata:
      encoder         : Lavc57.66.101 libx264
    Side data:
      cpb: bitrate max/min/avg: 0/0/1000000 buffer size: 0 vbv_delay: -1
Stream mapping:
  Stream #0:0 -> #0:0 (rawvideo (native) -> h264 (libx264))
Press [q] to stop, [?] for help
frame=   57 fps= 18 q=0.0 size=       0kB time=00:00:00.00 bitrate=N/A speed=   0x    frame=   66 fps= 18 q=58.0 size=       1kB time=00:00:00.06 bitrate=  96.3kbits/s speed=0.0164x    frame=   74 fps= 17 q=59.0 size=       1kB time=00:00:00.22 bitrate=  26.6kbits/s speed=0.0521x    frame=   83 fps= 17 q=58.0 size=       1kB time=00:00:00.40 bitrate=  14.6kbits/s speed=0.0845x    frame=   92 fps= 17 q=57.0 size=       1kB time=00:00:00.58 bitrate=  10.1kbits/s speed=0.11x    frame=  101 fps= 17 q=57.0 size=       1kB time=00:00:00.76 bitrate=   7.7kbits/s speed=0.131x    frame=  110 fps= 17 q=56.0 size=       1kB time=00:00:00.94 bitrate=   6.2kbits/s speed=0.145x    frame=  118 fps= 17 q=56.0 size=       1kB time=00:00:01.10 bitrate=   5.3kbits/s speed=0.157x    frame=  127 fps= 17 q=56.0 size=       1kB time=00:00:01.28 bitrate=   4.6kbits/s speed=0.171x    frame=  136 fps= 17 q=55.0 size=       1kB time=00:00:01.46 bitrate=   4.0kbits/s speed=0.182x    frame=  144 fps= 17 q=55.0 size=       1kB time=00:00:01.62 bitrate=   3.6kbits/s speed=0.19x    frame=  152 fps= 17 q=55.0 size=       1kB time=00:00:01.78 bitrate=   3.3kbits/s speed=0.197x    frame=  160 fps= 17 q=55.0 size=       1kB time=00:00:01.94 bitrate=   3.0kbits/s speed=0.202x    frame=  169 fps= 17 q=55.0 size=       1kB time=00:00:02.12 bitrate=   2.8kbits/s speed=0.209x    frame=  177 fps= 17 q=55.0 size=       1kB time=00:00:02.28 bitrate=   2.6kbits/s speed=0.213x    frame=  186 fps= 17 q=55.0 size=       1kB time=00:00:02.46 bitrate=   2.4kbits/s speed=0.219x    frame=  195 fps= 17 q=55.0 size=       1kB time=00:00:02.64 bitrate=   2.2kbits/s speed=0.225x    frame=  203 fps= 17 q=55.0 size=       1kB time=00:00:02.80 bitrate=   2.1kbits/s speed=0.229x    frame=  210 fps= 16 q=55.0 size=       1kB time=00:00:02.94 bitrate=   2.0kbits/s speed=0.231x    frame=  218 fps= 16 q=55.0 size=       1kB time=00:00:03.10 bitrate=   1.9kbits/s speed=0.234x    frame=  226 fps= 16 q=55.0 size=       1kB time=00:00:03.26 bitrate=   1.8kbits/s speed=0.237x    frame=  234 fps= 16 q=54.0 size=       1kB time=00:00:03.42 bitrate=   1.7kbits/s speed=0.24x    frame=  242 fps= 16 q=54.0 size=       1kB time=00:00:03.58 bitrate=   1.6kbits/s speed=0.243x    frame=  250 fps= 16 q=54.0 size=       1kB time=00:00:03.74 bitrate=   1.6kbits/s speed=0.245x    frame=  259 fps= 16 q=54.0 size=       1kB time=00:00:03.92 bitrate=   1.5kbits/s speed=0.249x    frame=  266 fps= 16 q=54.0 size=       1kB time=00:00:04.06 bitrate=   1.4kbits/s speed=0.249x    frame=  272 fps= 15 q=54.0 size=       1kB time=00:00:04.18 bitrate=   1.4kbits/s speed=0.233x    frame=  273 fps= 15 q=54.0 size=       1kB time=00:00:04.20 bitrate=   1.4kbits/s speed=0.225x    frame=  275 fps= 14 q=54.0 size=       1kB time=00:00:04.24 bitrate=   1.4kbits/s speed=0.216x    frame=  280 fps= 14 q=55.0 size=       1kB time=00:00:04.34 bitrate=   1.4kbits/s speed=0.215x    frame=  285 fps= 14 q=55.0 size=       1kB time=00:00:04.44 bitrate=   1.3kbits/s speed=0.213x    frame=  290 fps= 14 q=55.0 size=       1kB time=00:00:04.54 bitrate=   1.3kbits/s speed=0.212x    frame=  295 fps= 13 q=55.0 size=       1kB time=00:00:04.64 bitrate=   1.3kbits/s speed=0.21x    frame=  299 fps= 13 q=55.0 size=       1kB time=00:00:04.72 bitrate=   1.2kbits/s speed=0.209x    frame=  303 fps= 13 q=55.0 size=       1kB time=00:00:04.80 bitrate=   1.2kbits/s speed=0.208x    frame=  311 fps= 13 q=55.0 size=     601kB time=00:00:04.96 bitrate= 992.4kbits/s speed=0.209x    frame=  320 fps= 13 q=56.0 size=     601kB time=00:00:05.14 bitrate= 957.6kbits/s speed=0.212x    frame=  328 fps= 13 q=56.0 size=     601kB time=00:00:05.30 bitrate= 928.7kbits/s speed=0.214x    frame=  336 fps= 13 q=56.0 size=     601kB time=00:00:05.46 bitrate= 901.5kbits/s speed=0.216x    frame=  343 fps= 13 q=56.0 size=     601kB time=00:00:05.60 bitrate= 879.0kbits/s speed=0.217x    frame=  351 fps= 13 q=56.0 size=     601kB time=00:00:05.76 bitrate= 854.5kbits/s speed=0.219x    frame=  358 fps= 13 q=56.0 size=     601kB time=00:00:05.90 bitrate= 834.3kbits/s speed=0.22x    frame=  366 fps= 13 q=56.0 size=     601kB time=00:00:06.06 bitrate= 812.3kbits/s speed=0.222x    frame=  375 fps= 13 q=56.0 size=     601kB time=00:00:06.24 bitrate= 788.8kbits/s speed=0.224x    frame=  384 fps= 14 q=56.0 size=     601kB time=00:00:06.42 bitrate= 766.7kbits/s speed=0.227x    frame=  390 fps= 14 q=56.0 size=     601kB time=00:00:06.54 bitrate= 752.6kbits/s speed=0.227x    frame=  398 fps= 14 q=56.0 size=     601kB time=00:00:06.70 bitrate= 734.7kbits/s speed=0.228x    frame=  407 fps= 14 q=56.0 size=     601kB time=00:00:06.88 bitrate= 715.5kbits/s speed=0.23x    frame=  415 fps= 14 q=56.0 size=     601kB time=00:00:07.04 bitrate= 699.2kbits/s speed=0.232x    frame=  423 fps= 14 q=56.0 size=     601kB time=00:00:07.20 bitrate= 683.7kbits/s speed=0.233x    frame=  431 fps= 14 q=56.0 size=     601kB time=00:00:07.36 bitrate= 668.8kbits/s speed=0.234x    frame=  439 fps= 14 q=56.0 size=     601kB time=00:00:07.52 bitrate= 654.6kbits/s speed=0.235x    frame=  446 fps= 14 q=56.0 size=     601kB time=00:00:07.66 bitrate= 642.6kbits/s speed=0.236x    frame=  454 fps= 14 q=56.0 size=     601kB time=00:00:07.82 bitrate= 629.5kbits/s speed=0.237x    frame=  461 fps= 14 q=56.0 size=     601kB time=00:00:07.96 bitrate= 618.4kbits/s speed=0.238x    frame=  470 fps= 14 q=56.0 size=     601kB time=00:00:08.14 bitrate= 604.7kbits/s speed=0.239x    frame=  479 fps= 14 q=56.0 size=     601kB time=00:00:08.32 bitrate= 591.6kbits/s speed=0.24x    frame=  485 fps= 14 q=56.0 size=     601kB time=00:00:08.44 bitrate= 583.2kbits/s speed=0.24x    frame=  494 fps= 14 q=56.0 size=     601kB time=00:00:08.62 bitrate= 571.1kbits/s speed=0.242x    frame=  500 fps= 14 q=56.0 size=     601kB time=00:00:08.74 bitrate= 563.2kbits/s speed=0.241x    frame=  500 fps= 12 q=-1.0 Lsize=    1348kB time=00:00:09.94 bitrate=1110.6kbits/s speed=0.246x    
video:1343kB audio:0kB subtitle:0kB other streams:0kB global headers:0kB muxing overhead: 0.317158%
bench: utime=126.516s
bench: maxrss=2220836kB
[libx264 @ 0x397f120] frame I:3     Avg QP:50.04  size: 23020
[libx264 @ 0x397f120] frame P:183   Avg QP:50.99  size:  4468
[libx264 @ 0x397f120] frame B:314   Avg QP:51.00  size:  1555
[libx264 @ 0x397f120] consecutive B-frames: 16.0%  0.8%  0.0% 83.2%
[libx264 @ 0x397f120] mb I  I16..4: 46.9% 53.1%  0.0%
[libx264 @ 0x397f120] mb P  I16..4:  2.9%  1.6%  0.0%  P16..4:  4.3%  0.1%  2.4%  0.0%  0.0%    skip:88.7%
[libx264 @ 0x397f120] mb B  I16..4:  0.0%  0.0%  0.0%  B16..8:  7.5%  0.0%  0.0%  direct: 0.0%  skip:92.5%  L0: 3.1% L1:96.9% BI: 0.0%
[libx264 @ 0x397f120] final ratefactor: 48.55
[libx264 @ 0x397f120] 8x8 transform intra:40.1% inter:99.0%
[libx264 @ 0x397f120] direct mvs  spatial:98.7% temporal:1.3%
[libx264 @ 0x397f120] coded y,uvDC,uvAC intra: 0.6% 8.2% 0.1% inter: 0.0% 0.2% 0.0%
[libx264 @ 0x397f120] i16 v,h,dc,p: 52% 37%  2%  9%
[libx264 @ 0x397f120] i8 v,h,dc,ddl,ddr,vr,hd,vl,hu:  7%  1% 89%  0%  1%  0%  1%  0%  1%
[libx264 @ 0x397f120] i4 v,h,dc,ddl,ddr,vr,hd,vl,hu: 21%  3% 15%  5% 15%  7%  9% 10% 14%
[libx264 @ 0x397f120] i8c dc,h,v,p: 88% 11%  1%  0%
[libx264 @ 0x397f120] Weighted P-Frames: Y:0.5% UV:0.0%
[libx264 @ 0x397f120] ref P L0: 87.5%  0.0%  6.5%  2.7%  2.6%  0.6%
[libx264 @ 0x397f120] ref B L0: 82.6%  3.7% 11.0%  2.7%
[libx264 @ 0x397f120] ref B L1: 99.4%  0.6%
[libx264 @ 0x397f120] kb/s:1099.97
